IKResults
version=1
nRows=17
nColumns=24
inDegrees=yes

Units are S.I. units (second, meters, Newtons, ...)
If the header above contains a line with 'inDegrees', this indicates whether rotational values are in degrees (yes) or radians (no).

endheader
time	pelvis_tilt	pelvis_list	pelvis_rotation	pelvis_tx	pelvis_ty	pelvis_tz	hip_flexion_r	hip_adduction_r	hip_rotation_r	knee_angle_r	ankle_angle_r	subtalar_angle_r	mtp_angle_r	hip_flexion_l	hip_adduction_l	hip_rotation_l	knee_angle_l	ankle_angle_l	subtalar_angle_l	mtp_angle_l	lumbar_extension	lumbar_bending	lumbar_rotation
      6.28000000	      5.48628594	     -2.02563437	    -93.31865905	     -0.26923478	      0.94672650	     -0.40787457	     -0.76241283	     -6.65361870	     -1.77874969	    -57.90025709	    -14.15388319	     -4.39938113	      0.00000000	     23.42409630	     11.68009120	      7.30539333	    -25.86819509	     -0.08410379	    -24.91340300	      0.00000000	    -10.33323274	     -9.96000221	      9.17983506
      6.29000000	      5.52915370	     -2.29663220	    -93.10957163	     -0.26847478	      0.94935589	     -0.39413414	      0.94910707	     -6.88955964	     -1.92322315	    -60.19953094	    -13.08879648	     -5.27274243	      0.00000000	     22.08965906	     11.95024827	      7.48790164	    -25.80118822	      0.38570345	    -25.01325811	      0.00000000	    -10.75775884	     -9.85641038	      8.70422580
      6.30000000	      5.49058175	     -2.55821386	    -92.93364210	     -0.26783084	      0.95216290	     -0.38050371	      2.72142963	     -6.96146588	     -1.99519674	    -62.27441618	    -11.20877925	     -5.97940314	      0.00000000	     20.72541681	     12.05160079	      7.57160368	    -25.66852155	      1.14103187	    -25.01207473	      0.00000000	    -11.10431125	     -9.63871933	      8.00026808
      6.31000000	      5.30783076	     -2.76344470	    -92.79040016	     -0.26736720	      0.95489583	     -0.36713248	      4.59402622	     -6.78997044	     -2.00476278	    -63.97158461	     -9.18888272	     -6.47758777	      0.00000000	     19.44957158	     11.92060502	      7.40643996	    -25.54757805	      2.00568184	    -24.70284907	      0.00000000	    -11.35321459	     -9.24902270	      7.31870335
      6.32000000	      5.11368952	     -2.97098013	    -92.63979532	     -0.26680499	      0.95766509	     -0.35358638	      6.47553302	     -6.62191846	     -2.05784525	    -65.35091700	     -7.53163138	     -6.97070693	      0.00000000	     17.92593466	     11.80571681	      7.64799685	    -25.02440891	      2.93341466	    -24.33033412	      0.00000000	    -11.57182672	     -8.82191095	      6.65548897
      6.33000000	      4.83253669	     -3.14500077	    -92.53836377	     -0.26633059	      0.96018544	     -0.34007193	      8.38237273	     -6.32324799	     -2.06636775	    -66.38369042	     -6.45104163	     -7.69398141	      0.00000000	     16.58491609	     11.48698537	      7.26277439	    -24.75022104	      5.26435379	    -21.32104613	      0.00000000	    -11.77006788	     -8.28968117	      6.10624406
      6.34000000	      4.50875475	     -3.33224161	    -92.42743956	     -0.26577416	      0.96264128	     -0.32642101	     10.20795082	     -5.95174218	     -2.10056014	    -67.05158185	     -5.17524718	     -8.89014088	      0.00000000	     15.21170330	     11.12276656	      6.84521779	    -24.46420566	      5.74049965	    -20.92496147	      0.00000000	    -11.80235295	     -7.70767589	      5.53738532
      6.35000000	      4.17104029	     -3.57703885	    -92.23874439	     -0.26494400	      0.96514410	     -0.31254052	     11.83755569	     -5.60004848	     -2.26757990	    -67.36018119	     -4.14005704	    -10.52199665	      0.00000000	     13.73215457	     10.80057748	      6.68610128	    -24.11686616	      6.62801344	    -20.30211114	      0.00000000	    -12.02832227	     -7.08491793	      4.83714019
      6.36000000	      3.89816958	     -3.82066751	    -92.09563382	     -0.26417383	      0.96742353	     -0.29895909	     13.54482027	     -5.30227431	     -2.41972190	    -67.53221759	     -4.54401739	    -13.77386215	      0.00000000	     12.40495465	     10.50810697	      6.23529005	    -23.97629262	      8.40957952	    -17.54966002	      0.00000000	    -12.16406094	     -6.52784627	      4.33972818
      6.37000000	      3.62184397	     -4.09197926	    -91.87046949	     -0.26317447	      0.96970141	     -0.28532309	     15.01894889	     -5.06329143	     -2.71683221	    -67.26423931	     -3.28762963	    -14.91656798	      0.00000000	     10.79806482	     10.40939171	      6.84279358	    -23.42197656	      8.85697743	    -17.64950441	      0.00000000	    -12.40098435	     -5.95437400	      3.76413617
      6.38000000	      3.33005244	     -4.34970164	    -91.60039325	     -0.26208958	      0.97173585	     -0.27169874	     16.40418940	     -4.84102437	     -3.06341810	    -66.63220173	     -2.26925464	    -16.28209047	      0.00000000	      9.33072550	     10.25595200	      7.31219914	    -23.07799851	      9.44530610	    -17.73722421	      0.00000000	    -12.60031837	     -5.38202136	      3.09695469
      6.39000000	      3.06345317	     -4.61433836	    -91.27771400	     -0.26090561	      0.97354408	     -0.25815460	     17.71800840	     -4.66790062	     -3.48458233	    -65.80592296	     -1.23708610	    -17.61183326	      0.00000000	      7.78900525	     10.16004299	      8.05898168	    -22.60441339	     10.05834152	    -17.90288010	      0.00000000	    -12.83088831	     -4.83150980	      2.43573351
      6.40000000	      2.75845296	     -4.87005694	    -90.89901823	     -0.25974521	      0.97490588	     -0.24469543	     18.92848119	     -4.46466723	     -3.96038809	    -64.67213160	     -0.94372161	    -17.97839642	      0.00000000	      6.26985546	     10.05459064	      9.13334944	    -22.17698635	     10.28867144	    -18.01440612	      0.00000000	    -13.07292759	     -4.11094590	      2.21461189
      6.41000000	      2.52726237	     -5.12707602	    -90.49192511	     -0.25861756	      0.97603594	     -0.23127822	     20.08257907	     -4.34157319	     -4.36918590	    -63.39012894	      0.31551401	    -19.41194205	      0.00000000	      4.72813380	      9.99935247	     10.27820234	    -21.69603691	     11.31154207	    -18.73884803	      0.00000000	    -13.27533516	     -3.77901617	      1.09061177
      6.42000000	      2.29473363	     -5.34114516	    -90.03051649	     -0.25756421	      0.97681239	     -0.21804002	     21.16706225	     -4.20372718	     -4.77400295	    -61.86783322	      0.76260753	    -20.09171604	      0.00000000	      3.22248992	      9.90937846	     11.63592162	    -21.24043787	     11.95675901	    -19.43741474	      0.00000000	    -13.52959188	     -3.31325733	      0.33248751
      6.43000000	      2.15701066	     -5.57838934	    -89.57996633	     -0.25650983	      0.97737100	     -0.20471596	     22.11224330	     -4.17988113	     -5.09573645	    -60.06005831	      0.85062778	    -20.18045226	      0.00000000	      1.80769826	      9.77947682	     12.15068744	    -20.86879685	     12.06244948	    -19.50531708	      0.00000000	    -13.73330754	     -2.89193682	      0.15253565
      6.44000000	      2.07892752	     -5.76727983	    -89.00391627	     -0.25563254	      0.97749983	     -0.19189622	     23.02668395	     -4.22475034	     -5.45830815	    -58.00296142	      1.29712998	    -20.47087321	      0.00000000	      0.43497575	      9.62624130	     12.76908336	    -20.39964895	     12.77297509	    -19.74079907	      0.00000000	    -13.99619626	     -2.68636896	     -1.10611316
